<?xml version="1.0" encoding="UTF-8"?>
<svg xmlns="http://www.w3.org/2000/svg" xmlns:xlink="http://www.w3.org/1999/xlink" width="35px" height="35px" viewBox="0 0 35 35" version="1.1">
<g id="surface1">
<path style=" stroke:none;fill-rule:evenodd;fill:rgb(0%,0%,0%);fill-opacity:1;" d="M 2.917969 2.917969 C 2.109375 2.917969 1.457031 3.570312 1.457031 4.375 C 1.457031 5.179688 2.109375 5.832031 2.917969 5.832031 L 3.605469 5.832031 C 4.261719 5.832031 4.839844 6.273438 5.011719 6.90625 L 5.621094 9.132812 L 8.75 20.613281 L 8.75 23.332031 C 8.75 24.34375 9.09375 25.277344 9.667969 26.015625 C 9.097656 26.660156 8.75 27.507812 8.75 28.4375 C 8.75 30.449219 10.382812 32.082031 12.394531 32.082031 C 14.410156 32.082031 16.042969 30.449219 16.042969 28.4375 C 16.042969 28.1875 16.015625 27.945312 15.96875 27.707031 L 20.488281 27.707031 C 20.441406 27.945312 20.417969 28.1875 20.417969 28.4375 C 20.417969 30.449219 22.050781 32.082031 24.0625 32.082031 C 26.074219 32.082031 27.707031 30.449219 27.707031 28.4375 C 27.707031 27.957031 27.617188 27.5 27.449219 27.082031 C 27.613281 26.847656 27.707031 26.558594 27.707031 26.25 C 27.707031 25.445312 27.054688 24.792969 26.25 24.792969 L 13.125 24.792969 C 12.320312 24.792969 11.667969 24.140625 11.667969 23.332031 L 11.667969 21.875 L 26.59375 21.875 C 27.910156 21.875 29.0625 20.996094 29.410156 19.726562 L 31.792969 10.976562 C 32.296875 9.121094 30.902344 7.292969 28.980469 7.292969 L 8.140625 7.292969 L 7.828125 6.140625 C 7.308594 4.238281 5.578125 2.917969 3.605469 2.917969 Z M 24.0625 27.707031 C 23.660156 27.707031 23.332031 28.035156 23.332031 28.4375 C 23.332031 28.839844 23.660156 29.167969 24.0625 29.167969 C 24.464844 29.167969 24.792969 28.839844 24.792969 28.4375 C 24.792969 28.035156 24.464844 27.707031 24.0625 27.707031 Z M 26.59375 18.957031 L 11.320312 18.957031 L 8.9375 10.207031 L 28.980469 10.207031 Z M 12.394531 27.707031 C 11.992188 27.707031 11.667969 28.035156 11.667969 28.4375 C 11.667969 28.839844 11.992188 29.167969 12.394531 29.167969 C 12.796875 29.167969 13.125 28.839844 13.125 28.4375 C 13.125 28.035156 12.796875 27.707031 12.394531 27.707031 Z M 12.394531 27.707031 "/>
</g>
</svg>
