<?xml version="1.0" encoding="UTF-8"?>
<svg xmlns="http://www.w3.org/2000/svg" xmlns:xlink="http://www.w3.org/1999/xlink" width="25px" height="25px" viewBox="0 0 25 25" version="1.1">
<g id="surface1">
<path style=" stroke:none;fill-rule:nonzero;fill:rgb(0%,0%,0%);fill-opacity:1;" d="M 7.609375 0 L 7.609375 8.492188 L 9.238281 8.492188 L 9.238281 1.632812 L 20.742188 1.632812 L 17.085938 4.105469 C 16.671875 4.382812 16.425781 4.851562 16.425781 5.351562 L 16.425781 19.328125 L 9.238281 19.328125 L 9.238281 13.773438 L 7.609375 13.773438 L 7.609375 20.957031 L 16.425781 20.957031 L 16.425781 24.421875 C 16.425781 24.636719 16.542969 24.832031 16.734375 24.933594 C 16.921875 25.03125 17.152344 25.019531 17.328125 24.902344 L 23.15625 20.957031 L 23.15625 0 Z M 7.609375 0 "/>
<path style=" stroke:none;fill-rule:nonzero;fill:rgb(0%,0%,0%);fill-opacity:1;" d="M 11.164062 14.179688 C 11.164062 14.269531 11.21875 14.351562 11.300781 14.390625 C 11.378906 14.425781 11.476562 14.414062 11.546875 14.355469 L 15.355469 11.132812 L 11.546875 7.90625 C 11.476562 7.847656 11.378906 7.835938 11.300781 7.875 C 11.21875 7.910156 11.164062 7.992188 11.164062 8.082031 L 11.164062 9.714844 L 1.84375 9.714844 L 1.84375 12.550781 L 11.164062 12.550781 Z M 11.164062 14.179688 "/>
</g>
</svg>
