<?xml version="1.0" encoding="UTF-8"?>
<svg xmlns="http://www.w3.org/2000/svg" xmlns:xlink="http://www.w3.org/1999/xlink" width="25px" height="25px" viewBox="0 0 25 25" version="1.1">
<g id="surface1">
<path style=" stroke:none;fill-rule:nonzero;fill:rgb(0%,0%,0%);fill-opacity:1;" d="M 22.039062 11.183594 L 22.039062 8.222656 L 20.066406 8.222656 L 20.066406 11.183594 L 17.105469 11.183594 L 17.105469 13.15625 L 20.066406 13.15625 L 20.066406 16.117188 L 22.039062 16.117188 L 22.039062 13.15625 L 25 13.15625 L 25 11.183594 Z M 22.039062 11.183594 "/>
<path style=" stroke:none;fill-rule:nonzero;fill:rgb(0%,0%,0%);fill-opacity:1;" d="M 11.714844 13.511719 C 13.359375 12.621094 14.472656 10.882812 14.472656 8.882812 C 14.472656 5.976562 12.117188 3.617188 9.210938 3.617188 C 6.304688 3.617188 3.949219 5.976562 3.949219 8.882812 C 3.949219 10.882812 5.0625 12.621094 6.707031 13.511719 C 3.257812 13.832031 0 17.230469 0 21.382812 L 18.421875 21.382812 C 18.421875 17.230469 15.164062 13.832031 11.714844 13.511719 Z M 11.714844 13.511719 "/>
</g>
</svg>
